<svg xmlns="http://www.w3.org/2000/svg" width="21.484" height="17.449"><path d="M19.276 4.348c.014.191.014.382.014.573A12.442 12.442 0 0 1 6.761 17.449 12.443 12.443 0 0 1 0 15.472a9.109 9.109 0 0 0 1.063.055 8.818 8.818 0 0 0 5.467-1.882 4.411 4.411 0 0 1-4.117-3.054 5.553 5.553 0 0 0 .832.068 4.657 4.657 0 0 0 1.159-.15 4.4 4.4 0 0 1-3.532-4.32v-.055a4.434 4.434 0 0 0 1.99.559A4.41 4.41 0 0 1 1.5.804a12.516 12.516 0 0 0 9.079 4.608 4.971 4.971 0 0 1-.109-1.009 4.407 4.407 0 0 1 7.62-3.013A8.669 8.669 0 0 0 20.885.327a4.391 4.391 0 0 1-1.936 2.426 8.827 8.827 0 0 0 2.536-.682 9.465 9.465 0 0 1-2.208 2.277z" fill="#908b97"/></svg>