<svg xmlns="http://www.w3.org/2000/svg" width="50.562" height="35.916"><path d="m50.243 14.727-1.716-3.028a.988.988 0 0 0-1.719.973l1.716 3.027a.487.487 0 0 1 .043.373.466.466 0 0 1-.221.283L45.7 17.819a.5.5 0 0 1-.67-.178l-.672-1.188-.009-.016-6.945-12.284a.481.481 0 0 1-.044-.369.463.463 0 0 1 .22-.281l2.648-1.465a.492.492 0 0 1 .667.179l1.548 2.735a.988.988 0 0 0 1.719-.973l-1.547-2.734A2.472 2.472 0 0 0 39.273.31l-2.647 1.465a2.454 2.454 0 0 0-1 3.243l-1.458.423a5.741 5.741 0 0 1-1.208.277 2.465 2.465 0 0 1-.75-.225c-.2-.077-.457-.173-.768-.282l-2.584-.9a5.92 5.92 0 0 0-3.007-.387l-4.406.394c-2.009.178-3.289.631-4 1.417l-2.511-.728a2.453 2.453 0 0 0-1-3.229L11.288.312a2.474 2.474 0 0 0-3.344.935L.321 14.726a2.457 2.457 0 0 0 .937 3.357L3.9 19.548a2.476 2.476 0 0 0 3.344-.935l.28-.495a4.638 4.638 0 0 1 1.84 1.4 3.315 3.315 0 0 0 2.143 5.447 3.311 3.311 0 0 0 2.915 3.641 3.31 3.31 0 0 0 2.915 3.642 3.321 3.321 0 0 0 5.376 2.939l2.068-1.655a3.329 3.329 0 0 0 .448-.432l1.181.943a3.318 3.318 0 0 0 5.331-1.954 3.3 3.3 0 0 0 1.082.181 3.418 3.418 0 0 0 .376-.021 3.313 3.313 0 0 0 2.934-3.644 3.308 3.308 0 0 0 2.915-3.641 3.319 3.319 0 0 0 2.144-5.447 4.619 4.619 0 0 1 1.838-1.4l.28.5a2.477 2.477 0 0 0 3.345.934l2.645-1.465a2.46 2.46 0 0 0 .941-3.356zM5.529 17.641a.5.5 0 0 1-.669.179l-2.646-1.465a.464.464 0 0 1-.22-.282.485.485 0 0 1 .045-.374L9.664 2.214a.482.482 0 0 1 .423-.241.506.506 0 0 1 .246.064l2.645 1.465a.463.463 0 0 1 .22.281.482.482 0 0 1-.045.371zm7.206 5.082a1.345 1.345 0 0 1-1.68-2.1l3.7-2.955a1.35 1.35 0 0 1 1.893.211 1.345 1.345 0 0 1-.21 1.885l-.017.015-3.682 2.942zm1.023 3.43a1.349 1.349 0 0 1 .21-1.888l5.332-4.256a1.349 1.349 0 0 1 1.893.211 1.349 1.349 0 0 1-.212 1.889l-5.324 4.253a1.35 1.35 0 0 1-1.894-.21zm3.818 4.137a1.344 1.344 0 0 1-.691-2.383l3.685-2.944.013-.01a1.349 1.349 0 0 1 1.892.21 1.348 1.348 0 0 1-.212 1.889l-3.7 2.955a1.341 1.341 0 0 1-.986.282zm6.47.8a1.333 1.333 0 0 1-.495.9l-2.068 1.655a1.349 1.349 0 0 1-1.894-.21 1.348 1.348 0 0 1 .209-1.887l2.067-1.653a1.35 1.35 0 0 1 1.893.211 1.33 1.33 0 0 1 .289.985zm15.67-8.578a1.354 1.354 0 0 1-1.892.21l-2.642-2.111a.988.988 0 1 0-1.233 1.543l2.642 2.111a1.345 1.345 0 1 1-1.681 2.1l-2.866-2.287a.988.988 0 1 0-1.232 1.544l2.865 2.286a1.346 1.346 0 0 1-1.683 2.1l-1.426-1.141-.007-.006-1.2-.963-.225-.18a.988.988 0 0 0-1.236 1.541l1.434 1.147a1.346 1.346 0 0 1-1.684 2.1l-1.627-1.3a3.3 3.3 0 0 0-1.9-3.264 3.314 3.314 0 0 0-1.287-4.943 3.319 3.319 0 0 0-4-4.992 3.294 3.294 0 0 0-.649-1.359 3.328 3.328 0 0 0-4.668-.521l-2.644 2.114A6.507 6.507 0 0 0 8.5 16.392l5.439-9.621 2.9.839a3.23 3.23 0 0 0 .08.491c.7 2.882 3.355 4.225 6.926 3.506 3.009-.605 4.248.3 6.715 2.093.256.186.522.38.8.579 1.774 1.273 3.67 2.769 4.942 3.783l3.206 2.562a1.349 1.349 0 0 1 .209 1.889zm-.031-4.275-2.151-1.719c-1.289-1.028-3.212-2.545-5.023-3.845-.275-.2-.536-.387-.788-.571-2.558-1.863-4.407-3.209-8.267-2.433-1.181.238-4 .516-4.617-2.036-.087-.36 0-.484.039-.537.132-.184.663-.632 2.742-.816l4.411-.395a4.044 4.044 0 0 1 2.176.285l2.584.9c.287.1.517.187.72.264 1.244.471 1.574.471 3.209 0l1.905-.552 5.432 9.608a6.489 6.489 0 0 0-2.371 1.848z" fill="#af1f34"/></svg>