<svg xmlns="http://www.w3.org/2000/svg" width="35.681" height="43.306"><path d="M34.663 43.306H1.021a1.017 1.017 0 0 1-1.017-1.017V19.848a1.013 1.013 0 0 1 .043-.3 1.017 1.017 0 0 1 .929-.712h4.645l.6-3.909a1.017 1.017 0 0 1 1.006-.864h21.225a1.017 1.017 0 0 1 1.006.864l.6 3.909h4.649a1.019 1.019 0 0 1 .92.68 1.018 1.018 0 0 1 .04.289v22.484a1.018 1.018 0 0 1-1.004 1.017zM2.035 41.271h31.611V21.96l-11.11 8.913v.959a1.017 1.017 0 0 1-1.015 1.017h-7.358a1.018 1.018 0 0 1-1.017-1.017V30.69L2.035 21.937v19.334zM15.18 30.814h5.32v-1.809h-5.32zm-1.017-3.844h7.358a1.017 1.017 0 0 1 1.017 1.017v.276l9.233-7.407H3.953l9.192 7.244v-.112a1.018 1.018 0 0 1 1.018-1.018zm-6.479-8.148h20.312l-.418-2.738H8.102zM1.021 16.5a1.017 1.017 0 0 1-1.017-1.017V1.017A1.017 1.017 0 0 1 1.021 0h5.6a1.017 1.017 0 0 1 1.017 1.017v2.335h4.59a1.017 1.017 0 0 1 1.017 1.017v1.864h4.59a1.017 1.017 0 0 1 1.023 1.017v3.92a1.018 1.018 0 0 1-2.035 0v-2.9H13.25v2.9a1.018 1.018 0 1 1-2.035 0V5.387H7.642v5.783a1.018 1.018 0 1 1-2.035 0V2.035H2.035v13.451A1.017 1.017 0 0 1 1.021 16.5z" fill="#af1f34"/></svg>