<svg xmlns="http://www.w3.org/2000/svg" width="45.3" height="41.316"><path d="M1.019 41.316a1.02 1.02 0 0 1-.944-1.4l2.813-6.932c1.241-3.057 3.465-7.122 8.431-7.122h3.731c4.966 0 7.19 4.064 8.431 7.122l.363.894 7.556-6.989a1.02 1.02 0 0 1 1.384 1.5l-8.64 7.981a1.02 1.02 0 0 1-1.637-.366l-.917-2.26c-1.331-3.278-2.848-5.054-4.9-5.634l-2.732 3.744a1.02 1.02 0 0 1-1.647 0L9.6 28.136c-2.01.6-3.508 2.374-4.822 5.612L1.965 40.68a1.021 1.021 0 0 1-.946.636zm10.932-13.418 1.189 1.629 1.189-1.629zm32.33 10.164h-15.5a1.02 1.02 0 0 1 0-2.039h14.48V6.67h-1.947v4.459a3.994 3.994 0 0 1-3.99 3.99H25.255l-3.679 2.062a1.02 1.02 0 0 1-1.518-.889V3.99A3.994 3.994 0 0 1 24.048 0h13.276a3.994 3.994 0 0 1 3.99 3.99v.638h2.967a1.02 1.02 0 0 1 1.02 1.02v31.4a1.02 1.02 0 0 1-1.02 1.015zM24.048 2.039A1.953 1.953 0 0 0 22.1 3.99v10.558l2.393-1.341a1.019 1.019 0 0 1 .5-.13h12.331a1.953 1.953 0 0 0 1.951-1.951V3.99a1.953 1.953 0 0 0-1.951-1.951zm-22.22 27.1a1.02 1.02 0 0 1-1.02-1.02V5.648a1.02 1.02 0 0 1 1.02-1.02h14.8a1.02 1.02 0 0 1 0 2.039H2.847v21.455a1.02 1.02 0 0 1-1.019 1.02zM13.184 24a5.619 5.619 0 0 1-1.577-11.012l.037-.011A5.619 5.619 0 1 1 13.184 24zm-1.977-8.6a3.579 3.579 0 1 0 5.481 3.716H16.5a5.6 5.6 0 0 1-5.293-3.718zm1.955-.6a3.566 3.566 0 0 0 3.338 2.279h.019a3.585 3.585 0 0 0-3.334-2.277zm21.132-4.174h-8.153a1.02 1.02 0 0 1 0-2.039h8.153a1.02 1.02 0 0 1 0 2.039zm-2.519-4.1h-5.634a1.02 1.02 0 0 1 0-2.039h5.634a1.02 1.02 0 1 1 0 2.039zM16.448 2.039h-3.976a1.02 1.02 0 0 1 0-2.039h3.976a1.02 1.02 0 0 1 0 2.039z" fill="#af1f34"/></svg>