<svg xmlns="http://www.w3.org/2000/svg" width="46.402" height="43.306"><path d="M8.72 43.306a1.081 1.081 0 0 1-1.081-1.081v-3.983H6.016a1.081 1.081 0 0 1 0-2.161h38.011a1.081 1.081 0 1 1 0 2.161H9.8v3.98a1.081 1.081 0 0 1-1.08 1.084zm-7.639-5.064a1.081 1.081 0 0 1-1-1.487l2.937-7.239c1.3-3.2 3.623-7.446 8.818-7.446h3.9a8.086 8.086 0 0 1 6.849 3.7c.046.063.512.667.923 1.2l.878 1.14a1.081 1.081 0 1 1-1.714 1.317l-.877-1.138a84.086 84.086 0 0 1-.974-1.27 6.409 6.409 0 0 0-2.893-2.405l-3.267 4.477a1.081 1.081 0 0 1-1.746 0l-3.273-4.47c-1.9.736-3.342 2.556-4.623 5.713l-2.937 7.238a1.081 1.081 0 0 1-1.001.67zm10.956-14.006 1.745 2.392 1.745-2.392zm18.438 9.8H18.6a1.081 1.081 0 1 1 0-2.161h11.875a1.081 1.081 0 1 1 0 2.161zm14.847-8.994a1.081 1.081 0 0 1-1-.675l-2.428-5.985c-1.006-2.479-2.132-3.937-3.586-4.563L35.695 17.4a1.081 1.081 0 0 1-1.746 0l-2.617-3.578a5.206 5.206 0 0 0-2.177 1.869c-.066.092-1.808 2.419-2.362 3.14a1.081 1.081 0 1 1-1.714-1.317 467.53 467.53 0 0 0 2.32-3.083 6.858 6.858 0 0 1 5.809-3.132h3.222c4.409 0 6.372 3.58 7.465 6.273l2.428 5.985a1.081 1.081 0 0 1-1 1.487zM33.744 13.461l1.075 1.473 1.075-1.473zm6.445 9.393H23.93a1.081 1.081 0 1 1 0-2.161h16.259a1.081 1.081 0 0 1 0 2.161zm-26.406-2.7a5.874 5.874 0 0 1-1.648-11.512l.038-.012a5.86 5.86 0 0 1 .9-.181 5.76 5.76 0 0 1 .576-.041H13.822a5.874 5.874 0 0 1-.038 11.748zm-2.07-8.955a3.712 3.712 0 1 0 5.7 3.864h-.174a5.851 5.851 0 0 1-5.526-3.862zm2.073-.632a3.7 3.7 0 0 0 3.445 2.337 3.719 3.719 0 0 0-3.412-2.337h-.034zm21.033-.481a5.044 5.044 0 1 1 5.044-5.044 5.05 5.05 0 0 1-5.044 5.046zm0-7.927A2.883 2.883 0 1 0 37.7 5.042a2.886 2.886 0 0 0-2.881-2.881z" fill="#af1f34"/></svg>