<svg xmlns="http://www.w3.org/2000/svg" width="184.572" height="67.698"><g data-name="Group 22"><g data-name="Group 19"><g data-name="Group 18" fill="#00375b"><path data-name="Path 53" d="M94.507 16.825v.5a3.811 3.811 0 0 0-1.216.188.871.871 0 0 0-.539.6 5.413 5.413 0 0 0-.125 1.366v12.433a4.978 4.978 0 0 0 .137 1.354.871.871 0 0 0 .539.6 4.4 4.4 0 0 0 1.2.2v.5q-.677-.049-1.7-.063t-2.081-.012q-1.2 0-2.269.012t-1.692.063v-.5a4.407 4.407 0 0 0 1.2-.2.871.871 0 0 0 .539-.6 4.95 4.95 0 0 0 .138-1.354v-12.43a4.927 4.927 0 0 0-.138-1.366.9.9 0 0 0-.551-.6 3.728 3.728 0 0 0-1.191-.188v-.5q.627.025 1.692.051t2.269.025q1.053 0 2.081-.025t1.707-.054zm8.674 0v.476a6.1 6.1 0 0 0-1.717.7 7.637 7.637 0 0 0-1.918 1.7l-4.713 5.615 1.454-2.081 5.966 9.3a3.934 3.934 0 0 0 .753.927 3.451 3.451 0 0 0 1.052.6v.5q-.877-.049-1.955-.063t-1.955-.012q-.526 0-1.278.012t-1.906.063v-.5a2.068 2.068 0 0 0 1.241-.288q.213-.238-.188-.84l-3.635-5.891a5.239 5.239 0 0 0-.626-.864 1.657 1.657 0 0 0-.552-.4 2.3 2.3 0 0 0-.726-.138v-.526a3.619 3.619 0 0 0 1.967-.6 9.964 9.964 0 0 0 1.893-1.755l1.479-1.779a4.713 4.713 0 0 0 1.115-1.943 1.269 1.269 0 0 0-.326-1.266 2.222 2.222 0 0 0-1.492-.476v-.476q.928.025 1.767.051t1.943.025q1.453.004 2.356-.071z"/><path data-name="Path 54" d="m114.034 16.775 6.091 15.692a2.849 2.849 0 0 0 .79 1.241 1.521 1.521 0 0 0 .789.363v.5q-.752-.049-1.767-.063t-2.044-.012q-1.152 0-2.18.012t-1.629.063v-.5a2.38 2.38 0 0 0 1.617-.439q.338-.389-.163-1.667l-4.261-11.656.451-.652-3.81 9.926a8.49 8.49 0 0 0-.689 2.808 1.371 1.371 0 0 0 .614 1.291 3.646 3.646 0 0 0 1.6.389v.5q-.827-.049-1.579-.063t-1.529-.012q-.552 0-1.041.012a8.5 8.5 0 0 0-.864.063v-.5a2.1 2.1 0 0 0 1.078-.677 6 6 0 0 0 1.078-1.955l5.715-14.664q.4.025.865.025t.868-.025zm1.755 10.578v.5h-7.47l.251-.5z"/><path data-name="Path 55" d="M130.779 16.825v.5a4.264 4.264 0 0 0-1.29.188.938.938 0 0 0-.589.6 4.526 4.526 0 0 0-.15 1.366v12.735a4.338 4.338 0 0 0 .112 1.153.719.719 0 0 0 .452.5 3.078 3.078 0 0 0 1.015.126h1.229a3.415 3.415 0 0 0 2.093-.7 5.474 5.474 0 0 0 1.58-1.968 9.666 9.666 0 0 0 .889-2.92h.577q-.074.852-.075 2.205 0 .577.026 1.68t.15 2.281q-1.279-.049-2.883-.063t-2.857-.012h-2.259q-1.4 0-2.983.012t-2.933.063v-.5a4.4 4.4 0 0 0 1.2-.2.871.871 0 0 0 .539-.6 4.95 4.95 0 0 0 .138-1.354V19.482a4.928 4.928 0 0 0-.138-1.366.9.9 0 0 0-.551-.6 3.728 3.728 0 0 0-1.191-.188v-.5q.627.025 1.692.051t2.269.025q1.1 0 2.169-.025t1.769-.054z"/><path data-name="Path 56" d="M146.95 16.825v.5a3.813 3.813 0 0 0-1.216.188.871.871 0 0 0-.539.6 5.412 5.412 0 0 0-.125 1.366v12.433a4.983 4.983 0 0 0 .137 1.354.871.871 0 0 0 .552.6 4.487 4.487 0 0 0 1.191.2v.5q-.677-.049-1.7-.063t-2.081-.012q-1.2 0-2.255.012t-1.705.063v-.5a4.408 4.408 0 0 0 1.2-.2.871.871 0 0 0 .539-.6 4.95 4.95 0 0 0 .138-1.354v-12.43a4.927 4.927 0 0 0-.138-1.366.9.9 0 0 0-.551-.6 3.725 3.725 0 0 0-1.191-.188v-.5q.652.025 1.705.051t2.255.025q1.053 0 2.081-.025t1.703-.054z"/><path data-name="Path 57" d="M157.375 16.825v.5a3.811 3.811 0 0 0-1.216.188.871.871 0 0 0-.539.6 5.407 5.407 0 0 0-.125 1.366v12.433a4.954 4.954 0 0 0 .138 1.354.871.871 0 0 0 .539.6 4.407 4.407 0 0 0 1.2.2v.5q-.677-.049-1.7-.063t-2.081-.012q-1.2 0-2.269.012t-1.692.063v-.5a4.407 4.407 0 0 0 1.2-.2.871.871 0 0 0 .539-.6 4.948 4.948 0 0 0 .138-1.354v-12.43a4.925 4.925 0 0 0-.138-1.366.9.9 0 0 0-.552-.6 3.722 3.722 0 0 0-1.191-.188v-.5q.627.025 1.692.051t2.269.025q1.053 0 2.081-.025t1.707-.054zm8.674 0v.476a6.106 6.106 0 0 0-1.718.7 7.635 7.635 0 0 0-1.917 1.7l-4.713 5.615 1.454-2.081 5.966 9.3a3.92 3.92 0 0 0 .753.927 3.448 3.448 0 0 0 1.052.6v.5q-.877-.049-1.955-.063t-1.955-.012q-.526 0-1.278.012t-1.906.063v-.5a2.068 2.068 0 0 0 1.241-.288q.213-.238-.188-.84l-3.635-5.891a5.239 5.239 0 0 0-.626-.864 1.657 1.657 0 0 0-.552-.4 2.305 2.305 0 0 0-.727-.138v-.526a3.621 3.621 0 0 0 1.968-.6 9.982 9.982 0 0 0 1.893-1.755l1.479-1.779a4.711 4.711 0 0 0 1.115-1.943 1.269 1.269 0 0 0-.326-1.266 2.222 2.222 0 0 0-1.492-.476v-.476q.928.025 1.767.051t1.943.025q1.453.004 2.356-.071z"/><path data-name="Path 58" d="m176.903 16.775 6.091 15.692a2.853 2.853 0 0 0 .789 1.237 1.525 1.525 0 0 0 .79.363v.5q-.752-.049-1.767-.063t-2.043-.012q-1.152 0-2.18.012t-1.63.063v-.5a2.381 2.381 0 0 0 1.617-.439q.338-.389-.163-1.667l-4.264-11.651.452-.652-3.81 9.926a8.5 8.5 0 0 0-.69 2.808 1.372 1.372 0 0 0 .614 1.291 3.645 3.645 0 0 0 1.6.389v.5q-.827-.049-1.579-.063t-1.53-.012q-.552 0-1.04.012a8.483 8.483 0 0 0-.864.063v-.5a2.1 2.1 0 0 0 1.077-.677 6 6 0 0 0 1.078-1.955l5.715-14.664q.4.025.865.025t.872-.026zm1.755 10.578v.5h-7.471l.251-.5z"/></g></g><g data-name="Group 21"><g data-name="Group 20" fill="#439db4"><path data-name="Path 59" d="M90.38 42.628v.23a1.939 1.939 0 0 0-.592.086.427.427 0 0 0-.269.275 2.085 2.085 0 0 0-.069.626v5.837a1.994 1.994 0 0 0 .051.529.331.331 0 0 0 .207.229 1.41 1.41 0 0 0 .465.057h.563a1.563 1.563 0 0 0 .959-.322 2.508 2.508 0 0 0 .724-.9 4.439 4.439 0 0 0 .408-1.339h.264q-.034.391-.034 1.012 0 .264.011.769t.069 1.046q-.586-.023-1.321-.028t-1.31-.006h-1.034q-.645 0-1.368.006t-1.344.028v-.23a2.022 2.022 0 0 0 .551-.092.4.4 0 0 0 .247-.275 2.291 2.291 0 0 0 .063-.621v-5.7a2.28 2.28 0 0 0-.063-.626.415.415 0 0 0-.253-.275 1.686 1.686 0 0 0-.546-.086v-.23q.287.012.776.023t1.039.011q.505 0 .994-.011c.327-.008.598-.015.812-.023z"/><path data-name="Path 60" d="m98.767 42.605 2.792 7.193a1.309 1.309 0 0 0 .362.568.694.694 0 0 0 .362.167v.23c-.23-.015-.5-.025-.81-.028s-.622-.006-.936-.006q-.529 0-1 .006c-.314 0-.563.013-.747.028v-.23a1.088 1.088 0 0 0 .741-.2q.156-.178-.074-.764l-1.953-5.342.207-.3-1.744 4.547a3.9 3.9 0 0 0-.315 1.287.626.626 0 0 0 .282.592 1.667 1.667 0 0 0 .735.178v.23c-.253-.015-.494-.025-.724-.028s-.463-.006-.7-.006q-.253 0-.477.006a3.627 3.627 0 0 0-.4.028v-.23a.962.962 0 0 0 .494-.31 2.742 2.742 0 0 0 .494-.9l2.62-6.721q.183.012.4.012t.391-.007zm.8 4.848v.23h-3.424l.115-.23z"/><path data-name="Path 61" d="M105.557 42.628v.23a.453.453 0 0 0-.322.166.518.518 0 0 0-.074.345 1.925 1.925 0 0 0 .1.454l1.757 5.1-.31.414 1.471-4.3.161.31-1.8 5.434a1.65 1.65 0 0 0-.2-.011h-.414a1.638 1.638 0 0 0-.2.011l-2.574-7.192a1.208 1.208 0 0 0-.35-.575.724.724 0 0 0-.373-.16v-.23q.345.012.816.023t.9.011q.46 0 .822-.011c.24-.004.437-.011.59-.019zm8.2 0v.23a1.4 1.4 0 0 0-.528.4 2.62 2.62 0 0 0-.483.971l-2.022 6.56a1.645 1.645 0 0 0-.2-.011h-.414a1.639 1.639 0 0 0-.2.011l-2.413-7.307a.973.973 0 0 0-.281-.483.639.639 0 0 0-.35-.137v-.23q.321.012.764.023t.879.011q.505 0 .948-.011t.707-.023v.23a1.932 1.932 0 0 0-.546.08.315.315 0 0 0-.229.265 1.541 1.541 0 0 0 .109.62l1.631 4.986-.264.471 1.3-4.125a4.529 4.529 0 0 0 .265-1.367.905.905 0 0 0-.265-.707 1.137 1.137 0 0 0-.723-.224v-.23l.735.023c.229.008.46.011.689.011q.264 0 .488-.011l.406-.026z"/><path data-name="Path 62" d="M124.826 42.628q-.046.517-.063 1c-.012.322-.017.571-.017.747s0 .339.011.488.015.278.023.385h-.264a4.876 4.876 0 0 0-.414-1.408 1.7 1.7 0 0 0-.649-.73 1.825 1.825 0 0 0-.913-.218h-.379a1.691 1.691 0 0 0-.505.057.346.346 0 0 0-.23.23 1.8 1.8 0 0 0-.057.528v5.768a1.807 1.807 0 0 0 .092.666.492.492 0 0 0 .356.288 3.652 3.652 0 0 0 .781.08v.253q-.356-.011-.919-.023t-1.184-.011q-.494 0-.965.011l-.85.023v-.23a2.023 2.023 0 0 0 .552-.092.4.4 0 0 0 .247-.275 2.289 2.289 0 0 0 .063-.621v-5.7a2.278 2.278 0 0 0-.063-.626.413.413 0 0 0-.253-.275 1.684 1.684 0 0 0-.546-.086v-.23l1.345.023q.724.012 1.367.011h1.034q.529 0 1.2-.006c.446-.002.845-.012 1.2-.027zm-1.711 3.975v.23h-2.089v-.23zm.287-1.517q-.045.655-.04 1t.006.632c0 .192 0 .4.012.632s.026.563.057 1h-.265a3.251 3.251 0 0 0-.218-.747 1.341 1.341 0 0 0-.437-.557 1.225 1.225 0 0 0-.747-.213v-.23a1.048 1.048 0 0 0 .736-.253 1.666 1.666 0 0 0 .419-.6 4.086 4.086 0 0 0 .213-.661z"/><path data-name="Path 63" d="M130.178 42.628v.23a1.725 1.725 0 0 0-.557.086.4.4 0 0 0-.247.275 2.493 2.493 0 0 0-.057.626v5.7a2.292 2.292 0 0 0 .063.621.4.4 0 0 0 .253.275 2.059 2.059 0 0 0 .546.092v.23c-.207-.015-.467-.025-.781-.028s-.632-.006-.954-.006q-.552 0-1.034.006c-.322 0-.582.013-.781.028v-.23a2.025 2.025 0 0 0 .551-.092.4.4 0 0 0 .247-.275 2.263 2.263 0 0 0 .064-.621v-5.7a2.252 2.252 0 0 0-.064-.626.414.414 0 0 0-.253-.275 1.686 1.686 0 0 0-.546-.086v-.23q.3.012.781.023t1.034.011q.482 0 .954-.011t.781-.023z"/><path data-name="Path 64" d="M132.097 42.628q.287.012.776.023t.971.011q.552 0 1.068-.011c.345-.008.59-.011.736-.011a4.387 4.387 0 0 1 2.39.523 1.668 1.668 0 0 1 .792 1.476 2.078 2.078 0 0 1-.16.786 1.989 1.989 0 0 1-.546.736 2.8 2.8 0 0 1-1.051.539 5.9 5.9 0 0 1-1.678.2h-1.1v-.23h.988a1.717 1.717 0 0 0 1.028-.258 1.308 1.308 0 0 0 .483-.689 3.278 3.278 0 0 0 .132-.959 2.6 2.6 0 0 0-.322-1.407 1.209 1.209 0 0 0-1.1-.5q-.448 0-.58.2a1.577 1.577 0 0 0-.132.792v5.7a2.29 2.29 0 0 0 .063.621.4.4 0 0 0 .247.275 2.018 2.018 0 0 0 .551.092v.23c-.207-.015-.467-.025-.781-.028s-.632-.006-.954-.006q-.552 0-1.039.006c-.326 0-.584.013-.776.028v-.23a2.016 2.016 0 0 0 .551-.092.4.4 0 0 0 .247-.275 2.288 2.288 0 0 0 .063-.621v-5.7a2.277 2.277 0 0 0-.063-.626.414.414 0 0 0-.253-.275 1.688 1.688 0 0 0-.546-.086zm2.171 4.079q.493.011.856.046t.637.063c.184.019.349.032.495.04a3.187 3.187 0 0 1 1.545.448 1.674 1.674 0 0 1 .649 1.068l.264 1.184a2.225 2.225 0 0 0 .218.643.369.369 0 0 0 .333.184.526.526 0 0 0 .248-.075 1.123 1.123 0 0 0 .212-.19l.161.138a1.892 1.892 0 0 1-.667.511 2.149 2.149 0 0 1-.861.155 1.824 1.824 0 0 1-1.022-.264 1.391 1.391 0 0 1-.529-.977l-.206-1.148a6.223 6.223 0 0 0-.2-.845 1.472 1.472 0 0 0-.317-.574.73.73 0 0 0-.557-.212h-1.241z"/><path data-name="Path 65" d="M151.078 42.628v.23a1.665 1.665 0 0 0-.552.086.416.416 0 0 0-.248.275 2.285 2.285 0 0 0-.063.626v5.7a2.3 2.3 0 0 0 .063.621.4.4 0 0 0 .248.275 2.017 2.017 0 0 0 .552.092v.23c-.215-.015-.485-.025-.81-.028s-.657-.006-.994-.006q-.552 0-1.034.006c-.322 0-.582.013-.781.028v-.23a2.357 2.357 0 0 0 .592-.092.414.414 0 0 0 .27-.275 2.1 2.1 0 0 0 .069-.621v-6.216h.08l-2.855 7.445h-.183l-3.1-7.4v5.5a5.182 5.182 0 0 0 .069.971.692.692 0 0 0 .3.483 1.883 1.883 0 0 0 .741.2v.23c-.145-.015-.337-.025-.574-.028s-.46-.006-.667-.006q-.264 0-.54.006a4.459 4.459 0 0 0-.46.028v-.23a1.241 1.241 0 0 0 .552-.2.717.717 0 0 0 .246-.453 4.637 4.637 0 0 0 .063-.868v-5.17a2.258 2.258 0 0 0-.063-.626.414.414 0 0 0-.252-.275 1.688 1.688 0 0 0-.546-.086v-.23c.123.008.276.015.46.023s.364.011.54.011q.494 0 .971-.011t.844-.023l2.413 5.825-.287.264 2.309-6.055h.815q.506 0 .994-.011c.333 0 .603-.007.818-.015z"/></g></g></g><g data-name="Group 26"><g data-name="Group 23" fill="#d2aa3d"><path data-name="Path 66" d="m35.972 0 .785 1.59 1.755.255-1.27 1.238.3 1.748-1.569-.825-1.569.825.3-1.748-1.27-1.238 1.755-.255z"/><path data-name="Path 67" d="m19.293 4.469 1.475.985 1.647-.657-.481 1.707 1.133 1.364-1.772.07-.947 1.5-.614-1.663-1.719-.437 1.392-1.1z"/><path data-name="Path 68" d="m7.082 16.68 1.769.115 1.1-1.392.437 1.718 1.663.614-1.5.947-.07 1.772-1.363-1.134-1.707.481.657-1.647z"/><path data-name="Path 69" d="m2.613 33.356 1.59-.785.255-1.755 1.238 1.27 1.748-.3-.825 1.569.825 1.569-1.748-.3-1.238 1.27-.255-1.755z"/><path data-name="Path 70" d="m69.331 33.356-1.59.785-.255 1.755-1.238-1.27-1.748.3.825-1.569-.825-1.569 1.748.3 1.238-1.27.255 1.755z"/><path data-name="Path 71" d="m64.862 16.68-.985 1.475.657 1.647-1.707-.481-1.364 1.133-.07-1.772-1.5-.947 1.663-.614.437-1.718 1.1 1.392z"/><path data-name="Path 72" d="m52.651 4.469-.115 1.769 1.392 1.1-1.718.437-.614 1.663-.947-1.5-1.772-.07 1.133-1.364-.481-1.707 1.647.657z"/><path data-name="Path 73" d="m35.972 0 .785 1.59 1.755.255-1.27 1.238.3 1.748-1.569-.825-1.569.825.3-1.748-1.27-1.238 1.755-.255z"/></g><g data-name="Group 24" transform="translate(16.649 11.548)" fill="#00375b"><circle data-name="Ellipse 9" cx="1.989" cy="1.989" r="1.989" transform="translate(17.618)"/><path data-name="Path 74" d="M15.345 23.607a8.4 8.4 0 0 1-15.345 0z"/><path data-name="Path 75" d="M14.776 24.085H.568a.261.261 0 0 1-.239-.367l6.82-15.344a.262.262 0 0 1 .235-.155.26.26 0 0 1 .236.148l7.388 15.344a.261.261 0 0 1-.236.374zM.97 23.563h13.391L7.398 9.101z"/><path data-name="Path 76" d="M23.3 23.607a8.4 8.4 0 0 0 15.344 0z"/><path data-name="Path 77" d="M38.077 24.085H23.869a.262.262 0 0 1-.236-.374l7.389-15.344a.284.284 0 0 1 .239-.148.262.262 0 0 1 .235.155l6.823 15.347a.261.261 0 0 1-.239.367zm-13.792-.522h13.391L31.248 9.101z"/><circle data-name="Ellipse 10" cx="1.421" cy="1.421" r="1.421" transform="translate(30.121 7.342)"/><circle data-name="Ellipse 11" cx="1.421" cy="1.421" r="1.421" transform="translate(6.252 7.342)"/><path data-name="Path 78" d="M7.388 9.093a14.934 14.934 0 0 1 5.789-3.325 20.42 20.42 0 0 1 6.695-.99c.567.009 1.131.077 1.7.115l.844.084.834.154c.553.115 1.111.2 1.655.346.54.161 1.076.332 1.609.506l.8.267c.257.113.514.224.768.344l1.515.708a28.15 28.15 0 0 1 2.806 1.791c-1.1-.227-2.126-.576-3.176-.835l-1.571-.364c-.261-.058-.518-.126-.775-.192l-.788-.133a64.095 64.095 0 0 1-1.559-.289l-1.567-.188-.78-.1-.784-.04c-.522-.024-1.043-.081-1.565-.083a32.485 32.485 0 0 0-6.249.488 30.659 30.659 0 0 0-6.201 1.736z"/><path data-name="Path 79" d="m20.913 5.115-1.306 36.94-1.306-36.94z"/></g><g data-name="Group 25"><path data-name="Path 80" d="m36.277 67.698-1.044-1.393C24.926 52.563.902 58.628.66 58.69l-.662-2.521c1.023-.267 24.5-6.206 36.276 7.284C48.018 49.96 70.95 55.904 71.95 56.172l-.675 2.522c-.236-.063-23.653-6.121-33.956 7.617z" fill="#00375b"/><path data-name="Path 81" d="M3.084 50.906a70.956 70.956 0 0 1 8.553-.033 61.879 61.879 0 0 1 8.452 1.009 37.209 37.209 0 0 1 8.129 2.479 19.1 19.1 0 0 1 6.84 4.894 18.844 18.844 0 0 0-7.04-4.412 36.444 36.444 0 0 0-8.1-1.931 60.557 60.557 0 0 0-8.321-.474 69.453 69.453 0 0 0-8.28.543l-1.036.135-.243-2.14z" fill="#439db4"/><path data-name="Path 82" d="M5.213 47.244a62.048 62.048 0 0 1 8.088.347 55.667 55.667 0 0 1 7.927 1.4 35.309 35.309 0 0 1 7.531 2.79 20.526 20.526 0 0 1 6.3 4.863 20.261 20.261 0 0 0-6.524-4.392 34.565 34.565 0 0 0-7.533-2.241 54.417 54.417 0 0 0-7.816-.855 60.419 60.419 0 0 0-7.817.173l-1.04.1-.161-2.152z" fill="#439db4"/><path data-name="Path 83" d="M68.886 52.982a69.46 69.46 0 0 0-8.28-.543 60.549 60.549 0 0 0-8.321.474 36.437 36.437 0 0 0-8.1 1.931 18.847 18.847 0 0 0-7.04 4.412 19.1 19.1 0 0 1 6.841-4.894 37.208 37.208 0 0 1 8.129-2.479 61.869 61.869 0 0 1 8.452-1.009 70.956 70.956 0 0 1 8.553.033l1.043.071-.243 2.14z" fill="#439db4"/><path data-name="Path 84" d="M66.837 49.33a60.428 60.428 0 0 0-7.817-.173 54.411 54.411 0 0 0-7.815.855 34.557 34.557 0 0 0-7.533 2.241 20.263 20.263 0 0 0-6.524 4.392 20.531 20.531 0 0 1 6.3-4.863 35.313 35.313 0 0 1 7.532-2.79 55.65 55.65 0 0 1 7.927-1.4 62.055 62.055 0 0 1 8.088-.347l1.046.028-.161 2.152z" fill="#439db4"/></g></g></svg>