<svg xmlns="http://www.w3.org/2000/svg" width="39" height="40.345"><g data-name="Group 35"><path data-name="Path 88" d="M38.328 0H4.707a.672.672 0 0 0-.672.672v28.9l-3.494.7a.672.672 0 0 0-.54.659v3.362a.672.672 0 0 0 .672.672h1.345v2.017a.672.672 0 0 0 .672.672h1.345v2.017a.672.672 0 0 0 .672.672h33.621a.672.672 0 0 0 .672-.671v-39A.672.672 0 0 0 38.328 0zM1.345 33.621v-2.139l6.184-1.237a.672.672 0 0 0 .529-.535l1.808-9.64a3.961 3.961 0 0 0 1.786 0l1.808 9.64a.672.672 0 0 0 .529.535l6.184 1.237v2.138zM8.32 17.274a2.69 2.69 0 1 1 3.573 1.3 2.691 2.691 0 0 1-3.573-1.3zM3.362 36.31v-1.344h14.793v1.344zM37.655 39H5.379v-1.345h13.449a.672.672 0 0 0 .672-.672v-2.017h1.345a.672.672 0 0 0 .672-.672v-3.363a.672.672 0 0 0-.54-.659L14.7 29.016l-1.78-9.476a4.035 4.035 0 1 0-4.324 0l-1.777 9.476-1.44.288V8.318l15.466 4.949v2.267a3.362 3.362 0 1 0 1.345 0v-2.267l15.465-4.949zM23.534 18.828a2.017 2.017 0 1 1-2.017-2.017 2.017 2.017 0 0 1 2.017 2.017zM20.172 6.052A1.345 1.345 0 1 1 21.517 7.4a1.345 1.345 0 0 1-1.345-1.348zm17.483.854L22.19 11.855V8.646a2.69 2.69 0 1 0-1.345 0v3.209L5.379 6.906V1.345h32.276z" fill="#d2aa3d"/></g></svg>