<svg xmlns="http://www.w3.org/2000/svg" width="39" height="40.345" viewBox="0 0 39 40.345">
  <g id="pa_company" transform="translate(-8)">
    <g id="Group_35" data-name="Group 35" transform="translate(8)">
      <path id="Path_88" data-name="Path 88" d="M46.328,0H12.707a.672.672,0,0,0-.672.672v28.9l-3.494.7a.672.672,0,0,0-.54.659v3.362a.672.672,0,0,0,.672.672h1.345v2.017a.672.672,0,0,0,.672.672h1.345v2.017a.672.672,0,0,0,.672.672H46.328A.672.672,0,0,0,47,39.672v-39A.672.672,0,0,0,46.328,0ZM9.345,33.621V31.482l6.184-1.237a.672.672,0,0,0,.529-.535l1.808-9.64a3.961,3.961,0,0,0,1.786,0l1.808,9.64a.672.672,0,0,0,.529.535l6.184,1.237v2.138ZM16.32,17.274a2.69,2.69,0,1,1,3.573,1.3A2.691,2.691,0,0,1,16.32,17.274ZM11.362,36.31V34.966H26.155V36.31ZM45.655,39H13.379V37.655H26.828a.672.672,0,0,0,.672-.672V34.966h1.345a.672.672,0,0,0,.672-.672V30.931a.672.672,0,0,0-.54-.659L22.7,29.016,20.92,19.54a4.035,4.035,0,1,0-4.324,0l-1.777,9.476-1.44.288V8.318l15.466,4.949v2.267a3.362,3.362,0,1,0,1.345,0V13.267L45.655,8.318ZM31.534,18.828a2.017,2.017,0,1,1-2.017-2.017A2.017,2.017,0,0,1,31.534,18.828ZM28.172,6.052A1.345,1.345,0,1,1,29.517,7.4,1.345,1.345,0,0,1,28.172,6.052Zm17.483.854L30.19,11.855V8.646a2.69,2.69,0,1,0-1.345,0v3.209L13.379,6.906V1.345H45.655Z" transform="translate(-8)" fill="#d2aa3d"/>
    </g>
  </g>
</svg>
